  0
SECTION
  2
HEADER
  9
$ACADVER
  1
AC1009
  9
$INSBASE
 10
0.0
 20
0.0
 30
0.0
  9
$EXTMIN
 10
497169.6675637888
 20
2373499.749487153
 30
0.0
  9
$EXTMAX
 10
503574.5620743864
 20
2376830.601114605
 30
0.0
  9
$LIMMIN
 10
0.0
 20
0.0
  9
$LIMMAX
 10
420.0
 20
297.0
  9
$ORTHOMODE
 70
     0
  9
$REGENMODE
 70
     1
  9
$FILLMODE
 70
     1
  9
$QTEXTMODE
 70
     0
  9
$MIRRTEXT
 70
     0
  9
$DRAGMODE
 70
     2
  9
$LTSCALE
 40
1.0
  9
$OSMODE
 70
    41
  9
$ATTMODE
 70
     1
  9
$TEXTSIZE
 40
2.5
  9
$TRACEWID
 40
1.0
  9
$TEXTSTYLE
  7
STANDARD
  9
$CLAYER
  8
0
  9
$CELTYPE
  6
BYLAYER
  9
$CECOLOR
 62
   256
  9
$DIMSCALE
 40
1.0
  9
$DIMASZ
 40
2.5
  9
$DIMEXO
 40
0.625
  9
$DIMDLI
 40
3.75
  9
$DIMRND
 40
0.0
  9
$DIMDLE
 40
0.0
  9
$DIMEXE
 40
1.25
  9
$DIMTP
 40
0.0
  9
$DIMTM
 40
0.0
  9
$DIMTXT
 40
2.5
  9
$DIMCEN
 40
2.5
  9
$DIMTSZ
 40
0.0
  9
$DIMTOL
 70
     0
  9
$DIMLIM
 70
     0
  9
$DIMTIH
 70
     0
  9
$DIMTOH
 70
     0
  9
$DIMSE1
 70
     0
  9
$DIMSE2
 70
     0
  9
$DIMTAD
 70
     1
  9
$DIMZIN
 70
     8
  9
$DIMBLK
  1

  9
$DIMASO
 70
     1
  9
$DIMSHO
 70
     1
  9
$DIMPOST
  1

  9
$DIMAPOST
  1

  9
$DIMALT
 70
     0
  9
$DIMALTD
 70
     3
  9
$DIMALTF
 40
0.03937007874016
  9
$DIMLFAC
 40
1.0
  9
$DIMTOFL
 70
     1
  9
$DIMTVP
 40
0.0
  9
$DIMTIX
 70
     0
  9
$DIMSOXD
 70
     0
  9
$DIMSAH
 70
     0
  9
$DIMBLK1
  1

  9
$DIMBLK2
  1

  9
$DIMSTYLE
  2
ISO-25
  9
$DIMCLRD
 70
     0
  9
$DIMCLRE
 70
     0
  9
$DIMCLRT
 70
     0
  9
$DIMTFAC
 40
1.0
  9
$DIMGAP
 40
0.625
  9
$LUNITS
 70
     2
  9
$LUPREC
 70
     4
  9
$SKETCHINC
 40
1.0
  9
$FILLETRAD
 40
0.0
  9
$AUNITS
 70
     0
  9
$AUPREC
 70
     0
  9
$MENU
  1
.
  9
$ELEVATION
 40
0.0
  9
$PELEVATION
 40
0.0
  9
$THICKNESS
 40
0.0
  9
$LIMCHECK
 70
     0
  9
$BLIPMODE
 70
     0
  9
$CHAMFERA
 40
0.0
  9
$CHAMFERB
 40
0.0
  9
$SKPOLY
 70
     0
  9
$TDCREATE
 40
2461013.735200174
  9
$TDUPDATE
 40
2461041.678737072
  9
$TDINDWG
 40
0.014826840
  9
$TDUSRTIMER
 40
0.014826065
  9
$USRTIMER
 70
     1
  9
$ANGBASE
 50
0.0
  9
$ANGDIR
 70
     0
  9
$PDMODE
 70
     0
  9
$PDSIZE
 40
0.0
  9
$PLINEWID
 40
0.0
  9
$COORDS
 70
     1
  9
$SPLFRAME
 70
     0
  9
$SPLINETYPE
 70
     6
  9
$SPLINESEGS
 70
     8
  9
$ATTDIA
 70
     1
  9
$ATTREQ
 70
     1
  9
$HANDLING
 70
     1
  9
$HANDSEED
  5
41D
  9
$SURFTAB1
 70
     6
  9
$SURFTAB2
 70
     6
  9
$SURFTYPE
 70
     6
  9
$SURFU
 70
     6
  9
$SURFV
 70
     6
  9
$UCSNAME
  2

  9
$UCSORG
 10
0.0
 20
0.0
 30
0.0
  9
$UCSXDIR
 10
1.0
 20
0.0
 30
0.0
  9
$UCSYDIR
 10
0.0
 20
1.0
 30
0.0
  9
$PUCSNAME
  2

  9
$PUCSORG
 10
0.0
 20
0.0
 30
0.0
  9
$PUCSXDIR
 10
1.0
 20
0.0
 30
0.0
  9
$PUCSYDIR
 10
0.0
 20
1.0
 30
0.0
  9
$USERI1
 70
     0
  9
$USERI2
 70
     0
  9
$USERI3
 70
     0
  9
$USERI4
 70
     0
  9
$USERI5
 70
     0
  9
$USERR1
 40
0.0
  9
$USERR2
 40
0.0
  9
$USERR3
 40
0.0
  9
$USERR4
 40
0.0
  9
$USERR5
 40
0.0
  9
$WORLDVIEW
 70
     1
  9
$SHADEDGE
 70
     3
  9
$SHADEDIF
 70
    70
  9
$TILEMODE
 70
     1
  9
$MAXACTVP
 70
    64
  9
$PLIMCHECK
 70
     0
  9
$PEXTMIN
 10
0.0
 20
0.0
 30
0.0
  9
$PEXTMAX
 10
0.0
 20
0.0
 30
0.0
  9
$PLIMMIN
 10
0.0
 20
0.0
  9
$PLIMMAX
 10
12.0
 20
9.0
  9
$UNITMODE
 70
     0
  9
$VISRETAIN
 70
     1
  9
$PLINEGEN
 70
     0
  9
$PSLTSCALE
 70
     1
  0
ENDSEC
  0
SECTION
  2
TABLES
  0
TABLE
  2
VPORT
 70
     1
  0
VPORT
  2
*ACTIVE
 70
     0
 10
0.0
 20
0.0
 11
1.0
 21
1.0
 12
500334.3983731271
 22
2375211.703199298
 13
0.0
 23
0.0
 14
10.0
 24
10.0
 15
10.0
 25
10.0
 16
0.0
 26
0.0
 36
1.0
 17
0.0
 27
0.0
 37
0.0
 40
3639.022026863881
 41
3.071428571428571
 42
50.0
 43
0.0
 44
0.0
 50
0.0
 51
0.0
 71
    16
 72
  1000
 73
     1
 74
     3
 75
     0
 76
     0
 77
     0
 78
     0
  0
ENDTAB
  0
TABLE
  2
LTYPE
 70
     3
  0
LTYPE
  2
CONTINUOUS
 70
     0
  3
Solid line
 72
    65
 73
     0
 40
0.0
  0
LTYPE
  2
DASHED2
 70
     0
  3
Dashed (.5x) _ _ _ _ _ _ _ _ _ _ _ _ _ _ _ _ _
 72
    65
 73
     2
 40
9.524999999999996
 49
6.349999999999997
 49
-3.174999999999998
  0
ENDTAB
  0
TABLE
  2
LAYER
 70
     3
  0
LAYER
  2
0
 70
     0
 62
     7
  6
CONTINUOUS
  0
LAYER
  2
20251011-2-ADDSUB
 70
     0
 62
     7
  6
CONTINUOUS
  0
LAYER
  2
Î§ÑßÖÐÐÄÏß
 70
     0
 62
     1
  6
DASHED2
  0
ENDTAB
  0
TABLE
  2
STYLE
 70
     2
  0
STYLE
  2
STANDARD
 70
     0
 40
0.0
 41
1.0
 50
0.0
 71
     0
 42
2.5
  3

  4

  0
STYLE
  2
ANNOTATIVE
 70
     0
 40
0.0
 41
1.0
 50
0.0
 71
     0
 42
2.5
  3

  4

  0
ENDTAB
  0
TABLE
  2
VIEW
 70
     0
  0
ENDTAB
  0
TABLE
  2
UCS
 70
     0
  0
ENDTAB
  0
TABLE
  2
APPID
 70
    11
  0
APPID
  2
ACAD
 70
     0
  0
APPID
  2
ACAD_PSEXT
 70
     0
  0
APPID
  2
ACAD_NAV_VCDISPLAY
 70
     0
  0
APPID
  2
ACADANNOPO
 70
     0
  0
APPID
  2
ACADANNOTATIVE
 70
     0
  0
APPID
  2
ACAD_DSTYLE_DIMJAG
 70
     0
  0
APPID
  2
ACAD_DSTYLE_DIMBREAK
 70
     0
  0
APPID
  2
ACAD_DSTYLE_DIMTALN
 70
     0
  0
APPID
  2
ACAECLAYERSTANDARD
 70
     0
  0
APPID
  2
ACCMTRANSPARENCY
 70
     0
  0
APPID
  2
ACAD_MLEADERVER
 70
     0
  0
ENDTAB
  0
TABLE
  2
DIMSTYLE
 70
     4
  0
DIMSTYLE
  2
STANDARD
 70
     0
  3

  4

  5

  6

  7

 40
1.0
 41
0.18
 42
0.0625
 43
0.38
 44
0.18
 45
0.0
 46
0.0
 47
0.0
 48
0.0
140
0.18
141
0.09
142
0.0
143
25.4
144
1.0
145
0.0
146
1.0
147
0.09
 71
     0
 72
     0
 73
     1
 74
     1
 75
     0
 76
     0
 77
     0
 78
     0
170
     0
171
     2
172
     0
173
     0
174
     0
175
     0
176
     0
177
     0
178
     0
  0
DIMSTYLE
  2
ISO-25
 70
     0
  3

  4

  5

  6

  7

 40
1.0
 41
2.5
 42
0.625
 43
3.75
 44
1.25
 45
0.0
 46
0.0
 47
0.0
 48
0.0
140
2.5
141
2.5
142
0.0
143
0.03937007874016
144
1.0
145
0.0
146
1.0
147
0.625
 71
     0
 72
     0
 73
     0
 74
     0
 75
     0
 76
     0
 77
     1
 78
     8
170
     0
171
     3
172
     1
173
     0
174
     0
175
     0
176
     0
177
     0
178
     0
  0
DIMSTYLE
  2
ANNOTATIVE
 70
     0
  3

  4

  5

  6

  7

 40
1.0
 41
2.5
 42
0.625
 43
3.75
 44
1.25
 45
0.0
 46
0.0
 47
0.0
 48
0.0
140
2.5
141
2.5
142
0.0
143
0.03937007874016
144
1.0
145
0.0
146
1.0
147
0.625
 71
     0
 72
     0
 73
     0
 74
     0
 75
     0
 76
     0
 77
     1
 78
     8
170
     0
171
     3
172
     1
173
     0
174
     0
175
     0
176
     0
177
     0
178
     0
  0
ENDTAB
  0
ENDSEC
  0
SECTION
  2
BLOCKS
  0
BLOCK
  8
0
  2
$MODEL_SPACE
 70
     0
 10
0.0
 20
0.0
 30
0.0
  3
$MODEL_SPACE
  1

  0
ENDBLK
  8
0
  5
21
  0
BLOCK
 67
     1
  8
0
  2
$PAPER_SPACE
 70
     0
 10
0.0
 20
0.0
 30
0.0
  3
$PAPER_SPACE
  1

  0
ENDBLK
  5
1CA
 67
     1
  8
0
  0
ENDSEC
  0
SECTION
  2
ENTITIES
  0
POLYLINE
  5
240
  8
0
 62
     1
 66
     1
 10
0.0
 20
0.0
 30
0.0
  0
VERTEX
  5
321
  8
0
 62
     1
 10
500722.0984543476
 20
2375271.415853636
 30
0.0
  0
VERTEX
  5
323
  8
0
 62
     1
 10
501483.7454660036
 20
2374803.919885874
 30
0.0
  0
SEQEND
  5
322
  8
0
  0
POLYLINE
  5
241
  8
0
 62
     1
 66
     1
 10
0.0
 20
0.0
 30
0.0
  0
VERTEX
  5
324
  8
0
 62
     1
 10
500680.1277637858
 20
2375344.111222117
 30
0.0
  0
VERTEX
  5
326
  8
0
 62
     1
 10
501500.2321494479
 20
2374840.73434599
 30
0.0
  0
SEQEND
  5
325
  8
0
  0
POLYLINE
  5
242
  8
0
 62
     1
 66
     1
 10
0.0
 20
0.0
 30
0.0
  0
VERTEX
  5
327
  8
0
 62
     1
 10
500687.1192119517
 20
2375386.753820646
 30
0.0
  0
VERTEX
  5
329
  8
0
 62
     1
 10
501517.0096986632
 20
2374877.370273828
 30
0.0
  0
SEQEND
  5
328
  8
0
  0
POLYLINE
  5
243
  8
0
 62
     1
 66
     1
 10
0.0
 20
0.0
 30
0.0
  0
VERTEX
  5
32A
  8
0
 62
     1
 10
500721.3981896061
 20
2375412.647439908
 30
0.0
  0
VERTEX
  5
32C
  8
0
 62
     1
 10
501533.7872478777
 20
2374914.006201667
 30
0.0
  0
SEQEND
  5
32B
  8
0
  0
POLYLINE
  5
244
  8
0
 62
     1
 66
     1
 10
0.0
 20
0.0
 30
0.0
  0
VERTEX
  5
32D
  8
0
 62
     1
 10
500755.6771672607
 20
2375438.541059171
 30
0.0
  0
VERTEX
  5
32F
  8
0
 62
     1
 10
501550.5647970929
 20
2374950.642129506
 30
0.0
  0
SEQEND
  5
32E
  8
0
  0
POLYLINE
  5
245
  8
0
 62
     1
 66
     1
 10
0.0
 20
0.0
 30
0.0
  0
VERTEX
  5
330
  8
0
 62
     1
 10
500789.9561449151
 20
2375464.434678432
 30
0.0
  0
VERTEX
  5
332
  8
0
 62
     1
 10
501567.3423463077
 20
2374987.278057344
 30
0.0
  0
SEQEND
  5
331
  8
0
  0
POLYLINE
  5
246
  8
0
 62
     1
 66
     1
 10
0.0
 20
0.0
 30
0.0
  0
VERTEX
  5
333
  8
0
 62
     1
 10
500824.2351225703
 20
2375490.328297695
 30
0.0
  0
VERTEX
  5
335
  8
0
 62
     1
 10
501584.1198955227
 20
2375023.913985183
 30
0.0
  0
SEQEND
  5
334
  8
0
  0
POLYLINE
  5
247
  8
0
 62
     1
 66
     1
 10
0.0
 20
0.0
 30
0.0
  0
VERTEX
  5
336
  8
0
 62
     1
 10
500758.7202101763
 20
2375207.985111878
 30
0.0
  0
VERTEX
  5
338
  8
0
 62
     1
 10
501469.5265020781
 20
2374771.694979785
 30
0.0
  0
SEQEND
  5
337
  8
0
  0
POLYLINE
  5
259
  8
0
 62
     1
 66
     1
 10
0.0
 20
0.0
 30
0.0
  0
VERTEX
  5
339
  8
0
 62
     1
 10
501663.0108401015
 20
2375732.184895873
 30
0.0
  0
VERTEX
  5
33B
  8
0
 62
     1
 10
501272.2637380409
 20
2375231.619443662
 30
0.0
  0
SEQEND
  5
33A
  8
0
  0
POLYLINE
  5
25A
  8
0
 62
     1
 66
     1
 10
0.0
 20
0.0
 30
0.0
  0
VERTEX
  5
33C
  8
0
 62
     1
 10
501694.5415810621
 20
2375707.571639801
 30
0.0
  0
VERTEX
  5
33E
  8
0
 62
     1
 10
501305.9168426512
 20
2375209.725035444
 30
0.0
  0
SEQEND
  5
33D
  8
0
  0
POLYLINE
  5
25B
  8
0
 62
     1
 66
     1
 10
0.0
 20
0.0
 30
0.0
  0
VERTEX
  5
33F
  8
0
 62
     1
 10
501726.0723220228
 20
2375682.95838373
 30
0.0
  0
VERTEX
  5
341
  8
0
 62
     1
 10
501339.489002531
 20
2375187.726933212
 30
0.0
  0
SEQEND
  5
340
  8
0
  0
POLYLINE
  5
25C
  8
0
 62
     1
 66
     1
 10
0.0
 20
0.0
 30
0.0
  0
VERTEX
  5
342
  8
0
 62
     1
 10
501757.6030629832
 20
2375658.345127657
 30
0.0
  0
VERTEX
  5
344
  8
0
 62
     1
 10
501373.7955985375
 20
2375166.669678268
 30
0.0
  0
SEQEND
  5
343
  8
0
  0
POLYLINE
  5
25D
  8
0
 62
     1
 66
     1
 10
0.0
 20
0.0
 30
0.0
  0
VERTEX
  5
345
  8
0
 62
     1
 10
501789.133803944
 20
2375633.731871584
 30
0.0
  0
VERTEX
  5
347
  8
0
 62
     1
 10
501408.102194544
 20
2375145.612423327
 30
0.0
  0
SEQEND
  5
346
  8
0
  0
POLYLINE
  5
25E
  8
0
 62
     1
 66
     1
 10
0.0
 20
0.0
 30
0.0
  0
VERTEX
  5
348
  8
0
 62
     1
 10
501819.7420788519
 20
2375607.936893027
 30
0.0
  0
VERTEX
  5
34A
  8
0
 62
     1
 10
501442.4087905505
 20
2375124.555168384
 30
0.0
  0
SEQEND
  5
349
  8
0
  0
POLYLINE
  5
25F
  8
0
 62
     1
 66
     1
 10
0.0
 20
0.0
 30
0.0
  0
VERTEX
  5
34B
  8
0
 62
     1
 10
501851.0964551719
 20
2375583.097705538
 30
0.0
  0
VERTEX
  5
34D
  8
0
 62
     1
 10
501476.7153865569
 20
2375103.497913441
 30
0.0
  0
SEQEND
  5
34C
  8
0
  0
POLYLINE
  5
260
  8
0
 62
     1
 66
     1
 10
0.0
 20
0.0
 30
0.0
  0
VERTEX
  5
34E
  8
0
 62
     1
 10
501882.4508314921
 20
2375558.25851805
 30
0.0
  0
VERTEX
  5
350
  8
0
 62
     1
 10
501511.0219825636
 20
2375082.4406585
 30
0.0
  0
SEQEND
  5
34F
  8
0
  0
POLYLINE
  5
261
  8
0
 62
     1
 66
     1
 10
0.0
 20
0.0
 30
0.0
  0
VERTEX
  5
351
  8
0
 62
     1
 10
501913.8052078122
 20
2375533.419330562
 30
0.0
  0
VERTEX
  5
353
  8
0
 62
     1
 10
501545.3285785702
 20
2375061.383403557
 30
0.0
  0
SEQEND
  5
352
  8
0
  0
POLYLINE
  5
262
  8
0
 62
     1
 66
     1
 10
0.0
 20
0.0
 30
0.0
  0
VERTEX
  5
354
  8
0
 62
     1
 10
501760.8130068492
 20
2375272.423489999
 30
0.0
  0
VERTEX
  5
356
  8
0
 62
     1
 10
501579.6351745766
 20
2375040.326148615
 30
0.0
  0
SEQEND
  5
355
  8
0
  0
POLYLINE
  5
263
  8
0
 62
     1
 66
     1
 10
0.0
 20
0.0
 30
0.0
  0
VERTEX
  5
357
  8
0
 62
     1
 10
501778.8318269186
 20
2375230.500826498
 30
0.0
  0
VERTEX
  5
359
  8
0
 62
     1
 10
501684.7595941134
 20
2375109.989862997
 30
0.0
  0
SEQEND
  5
358
  8
0
  0
POLYLINE
  5
2CB
  8
0
 62
     5
 66
     1
 10
0.0
 20
0.0
 30
0.0
  0
VERTEX
  5
35A
  8
0
 62
     5
 10
500737.7956055464
 20
2375173.894630493
 30
0.0
  0
VERTEX
  5
35C
  8
0
 62
     5
 10
501368.1986329336
 20
2374786.955708843
 30
0.0
  0
SEQEND
  5
35B
  8
0
  0
POLYLINE
  5
2CC
  8
0
 62
     5
 66
     1
 10
0.0
 20
0.0
 30
0.0
  0
VERTEX
  5
35D
  8
0
 62
     5
 10
500705.7209309741
 20
2375146.838230759
 30
0.0
  0
VERTEX
  5
35F
  8
0
 62
     5
 10
501352.5069027839
 20
2374749.843521663
 30
0.0
  0
SEQEND
  5
35E
  8
0
  0
POLYLINE
  5
2CD
  8
0
 62
     5
 66
     1
 10
0.0
 20
0.0
 30
0.0
  0
VERTEX
  5
360
  8
0
 62
     5
 10
500582.3326946397
 20
2375075.599999296
 30
0.0
  0
VERTEX
  5
362
  8
0
 62
     5
 10
501303.1683347002
 20
2374633.153892386
 30
0.0
  0
SEQEND
  5
361
  8
0
  0
POLYLINE
  5
2CE
  8
0
 62
     5
 66
     1
 10
0.0
 20
0.0
 30
0.0
  0
VERTEX
  5
363
  8
0
 62
     5
 10
500621.7350076168
 20
2375098.3489353
 30
0.0
  0
VERTEX
  5
365
  8
0
 62
     5
 10
501318.9239185329
 20
2374670.417098594
 30
0.0
  0
SEQEND
  5
364
  8
0
  0
POLYLINE
  5
2CF
  8
0
 62
     5
 66
     1
 10
0.0
 20
0.0
 30
0.0
  0
VERTEX
  5
366
  8
0
 62
     5
 10
500661.1373205963
 20
2375121.097871306
 30
0.0
  0
VERTEX
  5
368
  8
0
 62
     5
 10
501334.6795023657
 20
2374707.680304802
 30
0.0
  0
SEQEND
  5
367
  8
0
  0
POLYLINE
  5
2D0
  8
0
 62
     5
 66
     1
 10
0.0
 20
0.0
 30
0.0
  0
VERTEX
  5
369
  8
0
 62
     5
 10
500547.9519907335
 20
2375055.750290641
 30
0.0
  0
VERTEX
  5
36B
  8
0
 62
     5
 10
501289.4207137694
 20
2374600.639677803
 30
0.0
  0
SEQEND
  5
36A
  8
0
  0
POLYLINE
  5
2D1
  8
0
 62
     5
 66
     1
 10
0.0
 20
0.0
 30
0.0
  0
VERTEX
  5
36C
  8
0
 62
     5
 10
500514.4104498996
 20
2375029.404035532
 30
0.0
  0
VERTEX
  5
36E
  8
0
 62
     5
 10
501273.6651299365
 20
2374563.376471595
 30
0.0
  0
SEQEND
  5
36D
  8
0
  0
POLYLINE
  5
2D2
  8
0
 62
     5
 66
     1
 10
0.0
 20
0.0
 30
0.0
  0
VERTEX
  5
36F
  8
0
 62
     5
 10
500517.2145712023
 20
2374980.939166806
 30
0.0
  0
VERTEX
  5
371
  8
0
 62
     5
 10
501256.9983751949
 20
2374526.862750711
 30
0.0
  0
SEQEND
  5
370
  8
0
  0
POLYLINE
  5
2D5
  8
0
 62
     5
 66
     1
 10
0.0
 20
0.0
 30
0.0
  0
VERTEX
  5
372
  8
0
 62
     5
 10
500517.9410465732
 20
2374880.453731119
 30
0.0
  0
VERTEX
  5
374
  8
0
 62
     5
 10
500948.0340028651
 20
2374616.464350536
 30
0.0
  0
SEQEND
  5
373
  8
0
  0
POLYLINE
  5
2D6
  8
0
 62
     5
 66
     1
 10
0.0
 20
0.0
 30
0.0
  0
VERTEX
  5
375
  8
0
 62
     5
 10
500520.3991528286
 20
2374925.878877243
 30
0.0
  0
VERTEX
  5
377
  8
0
 62
     5
 10
501088.4587184683
 20
2374577.206129475
 30
0.0
  0
SEQEND
  5
376
  8
0
  0
POLYLINE
  5
2D7
  8
0
 62
     5
 66
     1
 10
0.0
 20
0.0
 30
0.0
  0
VERTEX
  5
378
  8
0
 62
     5
 10
500515.7962125023
 20
2374840.817771175
 30
0.0
  0
VERTEX
  5
37A
  8
0
 62
     5
 10
500933.7191976218
 20
2374584.298271474
 30
0.0
  0
SEQEND
  5
379
  8
0
  0
POLYLINE
  5
2D8
  8
0
 62
     5
 66
     1
 10
0.0
 20
0.0
 30
0.0
  0
VERTEX
  5
37B
  8
0
 62
     5
 10
500513.3389649036
 20
2374795.392098008
 30
0.0
  0
VERTEX
  5
37D
  8
0
 62
     5
 10
500917.3135871384
 20
2374547.434049091
 30
0.0
  0
SEQEND
  5
37C
  8
0
  0
POLYLINE
  5
2D9
  8
0
 62
     5
 66
     1
 10
0.0
 20
0.0
 30
0.0
  0
VERTEX
  5
37E
  8
0
 62
     5
 10
500510.890689303
 20
2374750.151130033
 30
0.0
  0
VERTEX
  5
380
  8
0
 62
     5
 10
500900.9744647435
 20
2374510.719228749
 30
0.0
  0
SEQEND
  5
37F
  8
0
  0
POLYLINE
  5
2DC
  8
0
 62
     5
 66
     1
 10
0.0
 20
0.0
 30
0.0
  0
VERTEX
  5
381
  8
0
 62
     5
 10
500508.422488377
 20
2374704.541967805
 30
0.0
  0
VERTEX
  5
383
  8
0
 62
     5
 10
500884.5023661713
 20
2374473.705604326
 30
0.0
  0
SEQEND
  5
382
  8
0
  0
POLYLINE
  5
2DD
  8
0
 62
     5
 66
     1
 10
0.0
 20
0.0
 30
0.0
  0
VERTEX
  5
384
  8
0
 62
     5
 10
500505.9642501137
 20
2374659.116902704
 30
0.0
  0
VERTEX
  5
386
  8
0
 62
     5
 10
500868.096755688
 20
2374436.841381943
 30
0.0
  0
SEQEND
  5
385
  8
0
  0
POLYLINE
  5
2DE
  8
0
 62
     5
 66
     1
 10
0.0
 20
0.0
 30
0.0
  0
VERTEX
  5
387
  8
0
 62
     5
 10
500503.5159745132
 20
2374613.875934729
 30
0.0
  0
VERTEX
  5
389
  8
0
 62
     5
 10
500851.7576332931
 20
2374400.126561601
 30
0.0
  0
SEQEND
  5
388
  8
0
  0
POLYLINE
  5
2DF
  8
0
 62
     5
 66
     1
 10
0.0
 20
0.0
 30
0.0
  0
VERTEX
  5
38A
  8
0
 62
     5
 10
500501.047773587
 20
2374568.266772501
 30
0.0
  0
VERTEX
  5
38C
  8
0
 62
     5
 10
500835.2855347212
 20
2374363.112937178
 30
0.0
  0
SEQEND
  5
38B
  8
0
  0
POLYLINE
  5
2E0
  8
0
 62
     5
 66
     1
 10
0.0
 20
0.0
 30
0.0
  0
VERTEX
  5
38D
  8
0
 62
     5
 10
500498.5895353237
 20
2374522.8417074
 30
0.0
  0
VERTEX
  5
38F
  8
0
 62
     5
 10
500771.6362104857
 20
2374355.246722196
 30
0.0
  0
SEQEND
  5
38E
  8
0
  0
POLYLINE
  5
2E1
  8
0
 62
     5
 66
     1
 10
0.0
 20
0.0
 30
0.0
  0
VERTEX
  5
390
  8
0
 62
     5
 10
500502.5510626604
 20
2374473.66642736
 30
0.0
  0
VERTEX
  5
392
  8
0
 62
     5
 10
500747.2609463348
 20
2374323.464454349
 30
0.0
  0
SEQEND
  5
391
  8
0
  0
CIRCLE
  5
313
  8
0
 10
501042.9938042532
 20
2375693.120156554
 30
0.0
 40
967.1295836719833
  0
CIRCLE
  5
314
  8
0
 10
501166.2365453108
 20
2375547.469644395
 30
0.0
 40
538.8858378490793
  0
CIRCLE
  5
315
  8
0
 10
500501.047773587
 20
2374568.266772501
 30
0.0
 40
1029.753044306509
  0
CIRCLE
  5
316
  8
0
 10
501328.6928857958
 20
2374365.459718798
 30
0.0
 40
713.0833436443394
  0
LINE
  5
317
  8
0
 10
500168.5808669769
 20
2374566.359391578
 30
0.0
 11
502875.4396160234
 21
2375955.641199864
 31
0.0
  0
LINE
  5
318
  8
0
 10
502875.4396160234
 20
2375955.641199864
 30
0.0
 11
502041.8705310522
 21
2374602.21182534
 31
0.0
  0
LINE
  5
319
  8
0
 10
502041.8705310522
 20
2374602.21182534
 30
0.0
 11
499890.7245053198
 21
2375919.788766101
 31
0.0
  0
LINE
  5
31A
  8
0
 10
499890.7245053198
 20
2375919.788766101
 30
0.0
 11
502853.3583157591
 21
2375919.788766101
 31
0.0
  0
POLYLINE
  5
31B
  8
0
 10
0.0
 20
0.0
 30
0.0
 66
     1
 70
     9
  0
VERTEX
  5
393
  8
0
 10
501046.9654941509
 20
2374323.464454349
 30
0.0
 70
    32
  0
VERTEX
  5
395
  8
0
 10
501068.2854329266
 20
2374365.114113979
 30
0.0
 70
    32
  0
VERTEX
  5
396
  8
0
 10
501084.8812076083
 20
2374409.405808901
 30
0.0
 70
    32
  0
VERTEX
  5
397
  8
0
 10
501096.7122055544
 20
2374456.231149915
 30
0.0
 70
    32
  0
VERTEX
  5
398
  8
0
 10
501103.7494743305
 20
2374505.475547566
 30
0.0
 70
    32
  0
VERTEX
  5
399
  8
0
 10
501105.9757925604
 20
2374557.018492561
 30
0.0
 70
    32
  0
VERTEX
  5
39A
  8
0
 10
501103.3857120706
 20
2374610.733850675
 30
0.0
 70
    32
  0
VERTEX
  5
39B
  8
0
 10
501095.9855712219
 20
2374666.490171428
 30
0.0
 70
    32
  0
VERTEX
  5
39C
  8
0
 10
501083.7934793991
 20
2374724.151009758
 30
0.0
 70
    32
  0
VERTEX
  5
39D
  8
0
 10
501066.8392726938
 20
2374783.575259932
 30
0.0
 70
    32
  0
VERTEX
  5
39E
  8
0
 10
501045.1644408911
 20
2374844.617500851
 30
0.0
 70
    32
  0
VERTEX
  5
39F
  8
0
 10
501018.8220259363
 20
2374907.128351924
 30
0.0
 70
    32
  0
VERTEX
  5
3A0
  8
0
 10
500987.8764921332
 20
2374970.954838623
 30
0.0
 70
    32
  0
VERTEX
  5
3A1
  8
0
 10
500952.4035683884
 20
2375035.940766839
 30
0.0
 70
    32
  0
VERTEX
  5
3A2
  8
0
 10
500912.4900628906
 20
2375101.927105116
 30
0.0
 70
    32
  0
VERTEX
  5
3A3
  8
0
 10
500868.2336506762
 20
2375168.752373827
 30
0.0
 70
    32
  0
VERTEX
  5
3A4
  8
0
 10
500819.7426346019
 20
2375236.253040342
 30
0.0
 70
    32
  0
VERTEX
  5
3A5
  8
0
 10
500767.13568031
 20
2375304.263919218
 30
0.0
 70
    32
  0
VERTEX
  5
3A6
  8
0
 10
500710.5415258328
 20
2375372.618576438
 30
0.0
 70
    32
  0
VERTEX
  5
3A7
  8
0
 10
500650.09866655
 20
2375441.149736702
 30
0.0
 70
    32
  0
VERTEX
  5
3A8
  8
0
 10
500585.9550162667
 20
2375509.689692776
 30
0.0
 70
    32
  0
VERTEX
  5
3A9
  8
0
 10
500518.2675452438
 20
2375578.070715902
 30
0.0
 70
    32
  0
VERTEX
  5
3AA
  8
0
 10
500447.2018960655
 20
2375646.125466259
 30
0.0
 70
    32
  0
VERTEX
  5
3AB
  8
0
 10
500372.9319782836
 20
2375713.687402468
 30
0.0
 70
    32
  0
VERTEX
  5
3AC
  8
0
 10
500295.6395428329
 20
2375780.59118915
 30
0.0
 70
    32
  0
VERTEX
  5
3AD
  8
0
 10
500215.5137372546
 20
2375846.673101528
 30
0.0
 70
    32
  0
VERTEX
  5
3AE
  8
0
 10
500132.7506428218
 20
2375911.771426089
 30
0.0
 70
    32
  0
VERTEX
  5
3AF
  8
0
 10
500047.5527946954
 20
2375975.726856322
 30
0.0
 70
    32
  0
VERTEX
  5
3B0
  8
0
 10
499960.1286862865
 20
2376038.382882575
 30
0.0
 70
    32
  0
VERTEX
  5
3B1
  8
0
 10
499870.6922590381
 20
2376099.586175051
 30
0.0
 70
    32
  0
VERTEX
  5
3B2
  8
0
 10
499779.4623788746
 20
2376159.186959037
 30
0.0
 70
    32
  0
VERTEX
  5
3B3
  8
0
 10
499686.6623006005
 20
2376217.03938143
 30
0.0
 70
    32
  0
VERTEX
  5
3B4
  8
0
 10
499592.5191215579
 20
2376273.001867654
 30
0.0
 70
    32
  0
VERTEX
  5
3B5
  8
0
 10
499497.2632258814
 20
2376326.93746813
 30
0.0
 70
    32
  0
VERTEX
  5
3B6
  8
0
 10
499401.1277207103
 20
2376378.714193405
 30
0.0
 70
    32
  0
VERTEX
  5
3B7
  8
0
 10
499304.347865735
 20
2376428.205337155
 30
0.0
 70
    32
  0
VERTEX
  5
3B8
  8
0
 10
499207.1604974783
 20
2376475.28978626
 30
0.0
 70
    32
  0
VERTEX
  5
3B9
  8
0
 10
499109.8034497161
 20
2376519.852317181
 30
0.0
 70
    32
  0
VERTEX
  5
3BA
  8
0
 10
499012.5149714586
 20
2376561.783877939
 30
0.0
 70
    32
  0
VERTEX
  5
3BB
  8
0
 10
498915.5331439149
 20
2376600.981854977
 30
0.0
 70
    32
  0
VERTEX
  5
3BC
  8
0
 10
498819.0952978682
 20
2376637.350324277
 30
0.0
 70
    32
  0
VERTEX
  5
3BD
  8
0
 10
498723.4374328881
 20
2376670.800286101
 30
0.0
 70
    32
  0
VERTEX
  5
3BE
  8
0
 10
498628.7936397999
 20
2376701.249882787
 30
0.0
 70
    32
  0
VERTEX
  5
3BF
  8
0
 10
498535.3955278248
 20
2376728.624599069
 30
0.0
 70
    32
  0
VERTEX
  5
3C0
  8
0
 10
498443.4716577935
 20
2376752.857444428
 30
0.0
 70
    32
  0
VERTEX
  5
3C1
  8
0
 10
498353.2469828199
 20
2376773.889117033
 30
0.0
 70
    32
  0
VERTEX
  5
3C2
  8
0
 10
498264.9422978028
 20
2376791.668148857
 30
0.0
 70
    32
  0
VERTEX
  5
3C3
  8
0
 10
498178.7736991037
 20
2376806.151031626
 30
0.0
 70
    32
  0
VERTEX
  5
3C4
  8
0
 10
498094.9520557231
 20
2376817.302323303
 30
0.0
 70
    32
  0
VERTEX
  5
3C5
  8
0
 10
498013.6824932684
 20
2376825.094734807
 30
0.0
 70
    32
  0
VERTEX
  5
3C6
  8
0
 10
497935.1638919773
 20
2376829.509196801
 30
0.0
 70
    32
  0
VERTEX
  5
3C7
  8
0
 10
497859.5884000249
 20
2376830.534906357
 30
0.0
 70
    32
  0
VERTEX
  5
3C8
  8
0
 10
497787.140963304
 20
2376828.169353392
 30
0.0
 70
    32
  0
VERTEX
  5
3C9
  8
0
 10
497717.9988728326
 20
2376822.418326812
 30
0.0
 70
    32
  0
VERTEX
  5
3CA
  8
0
 10
497652.3313308923
 20
2376813.29590034
 30
0.0
 70
    32
  0
VERTEX
  5
3CB
  8
0
 10
497590.2990369621
 20
2376800.824398083
 30
0.0
 70
    32
  0
VERTEX
  5
3CC
  8
0
 10
497532.0537944602
 20
2376785.034339899
 30
0.0
 70
    32
  0
VERTEX
  5
3CD
  8
0
 10
497477.7381392552
 20
2376765.964366704
 30
0.0
 70
    32
  0
VERTEX
  5
3CE
  8
0
 10
497427.4849908573
 20
2376743.661145918
 30
0.0
 70
    32
  0
VERTEX
  5
3CF
  8
0
 10
497381.4173271413
 20
2376718.179257261
 30
0.0
 70
    32
  0
VERTEX
  5
3D0
  8
0
 10
497339.6478834002
 20
2376689.581059184
 30
0.0
 70
    32
  0
VERTEX
  5
3D1
  8
0
 10
497302.2788764621
 20
2376657.936536269
 30
0.0
 70
    32
  0
VERTEX
  5
3D2
  8
0
 10
497269.4017545491
 20
2376623.323127969
 30
0.0
 70
    32
  0
VERTEX
  5
3D3
  8
0
 10
497241.0969734875
 20
2376585.82553909
 30
0.0
 70
    32
  0
VERTEX
  5
3D4
  8
0
 10
497217.4337998199
 20
2376545.53553252
 30
0.0
 70
    32
  0
VERTEX
  5
3D5
  8
0
 10
497198.4701412974
 20
2376502.551704653
 30
0.0
 70
    32
  0
VERTEX
  5
3D6
  8
0
 10
497184.2524051703
 20
2376456.979244122
 30
0.0
 70
    32
  0
VERTEX
  5
3D7
  8
0
 10
497174.8153846212
 20
2376408.929674372
 30
0.0
 70
    32
  0
VERTEX
  5
3D8
  8
0
 10
497170.182173621
 20
2376358.520580753
 30
0.0
 70
    32
  0
VERTEX
  5
3D9
  8
0
 10
497170.3641104131
 20
2376305.875322763
 30
0.0
 70
    32
  0
VERTEX
  5
3DA
  8
0
 10
497175.3607497679
 20
2376251.122732172
 30
0.0
 70
    32
  0
VERTEX
  5
3DB
  8
0
 10
497185.1598640716
 20
2376194.396797743
 30
0.0
 70
    32
  0
VERTEX
  5
3DC
  8
0
 10
497199.7374732494
 20
2376135.836337342
 30
0.0
 70
    32
  0
VERTEX
  5
3DD
  8
0
 10
497219.0579034489
 20
2376075.584658231
 30
0.0
 70
    32
  0
VERTEX
  5
3DE
  8
0
 10
497243.0738743398
 20
2376013.789206365
 30
0.0
 70
    32
  0
VERTEX
  5
3DF
  8
0
 10
497271.7266148169
 20
2375950.601205568
 30
0.0
 70
    32
  0
VERTEX
  5
3E0
  8
0
 10
497304.9460068229
 20
2375886.175287469
 30
0.0
 70
    32
  0
VERTEX
  5
3E1
  8
0
 10
497342.650756939
 20
2375820.669113084
 30
0.0
 70
    32
  0
VERTEX
  5
3E2
  8
0
 10
497384.7485953235
 20
2375754.242986998
 30
0.0
 70
    32
  0
VERTEX
  5
3E3
  8
0
 10
497431.1365015111
 20
2375687.059465073
 30
0.0
 70
    32
  0
VERTEX
  5
3E4
  8
0
 10
497481.7009565224
 20
2375619.282956647
 30
0.0
 70
    32
  0
VERTEX
  5
3E5
  8
0
 10
497536.3182206629
 20
2375551.079322192
 30
0.0
 70
    32
  0
VERTEX
  5
3E6
  8
0
 10
497594.8546363348
 20
2375482.61546743
 30
0.0
 70
    32
  0
VERTEX
  5
3E7
  8
0
 10
497657.1669551198
 20
2375414.058934888
 30
0.0
 70
    32
  0
VERTEX
  5
3E8
  8
0
 10
497723.1026883322
 20
2375345.577493887
 30
0.0
 70
    32
  0
VERTEX
  5
3E9
  8
0
 10
497792.5004801839
 20
2375277.33872999
 30
0.0
 70
    32
  0
VERTEX
  5
3EA
  8
0
 10
497865.1905026492
 20
2375209.509634887
 30
0.0
 70
    32
  0
VERTEX
  5
3EB
  8
0
 10
497940.9948710621
 20
2375142.25619774
 30
0.0
 70
    32
  0
VERTEX
  5
3EC
  8
0
 10
498019.7280794307
 20
2375075.742998979
 30
0.0
 70
    32
  0
VERTEX
  5
3ED
  8
0
 10
498101.1974544006
 20
2375010.132807549
 30
0.0
 70
    32
  0
VERTEX
  5
3EE
  8
0
 10
498185.2036267593
 20
2374945.58618258
 30
0.0
 70
    32
  0
VERTEX
  5
3EF
  8
0
 10
498271.5410193261
 20
2374882.261080481
 30
0.0
 70
    32
  0
VERTEX
  5
3F0
  8
0
 10
498359.9983500335
 20
2374820.312468388
 30
0.0
 70
    32
  0
VERTEX
  5
3F1
  8
0
 10
498450.3591489704
 20
2374759.891944936
 30
0.0
 70
    32
  0
VERTEX
  5
3F2
  8
0
 10
498542.40228812
 20
2374701.147369269
 30
0.0
 70
    32
  0
VERTEX
  5
3F3
  8
0
 10
498635.9025224969
 20
2374644.22249921
 30
0.0
 70
    32
  0
VERTEX
  5
3F4
  8
0
 10
498730.6310413597
 20
2374589.256639453
 30
0.0
 70
    32
  0
VERTEX
  5
3F5
  8
0
 10
498826.3560281489
 20
2374536.38430067
 30
0.0
 70
    32
  0
VERTEX
  5
3F6
  8
0
 10
498922.8432277811
 20
2374485.734870332
 30
0.0
 70
    32
  0
VERTEX
  5
3F7
  8
0
 10
499019.8565199101
 20
2374437.432296081
 30
0.0
 70
    32
  0
VERTEX
  5
3F8
  8
0
 10
499117.1584967536
 20
2374391.594782414
 30
0.0
 70
    32
  0
VERTEX
  5
3F9
  8
0
 10
499214.5110440691
 20
2374348.334501405
 30
0.0
 70
    32
  0
VERTEX
  5
3FA
  8
0
 10
499311.6759238601
 20
2374307.757318213
 30
0.0
 70
    32
  0
VERTEX
  5
3FB
  8
0
 10
499408.4153573833
 20
2374269.962532002
 30
0.0
 70
    32
  0
VERTEX
  5
3FC
  8
0
 10
499504.4926070344
 20
2374235.042632951
 30
0.0
 70
    32
  0
VERTEX
  5
3FD
  8
0
 10
499599.6725556834
 20
2374203.083075901
 30
0.0
 70
    32
  0
VERTEX
  5
3FE
  8
0
 10
499693.7222820467
 20
2374174.162071246
 30
0.0
 70
    32
  0
VERTEX
  5
3FF
  8
0
 10
499786.4116306839
 20
2374148.350393529
 30
0.0
 70
    32
  0
VERTEX
  5
400
  8
0
 10
499877.5137752267
 20
2374125.711208252
 30
0.0
 70
    32
  0
VERTEX
  5
401
  8
0
 10
499966.8057734612
 20
2374106.299917295
 30
0.0
 70
    32
  0
VERTEX
  5
402
  8
0
 10
500054.069112905
 20
2374090.164023338
 30
0.0
 70
    32
  0
VERTEX
  5
403
  8
0
 10
500139.0902455438
 20
2374077.34301362
 30
0.0
 70
    32
  0
VERTEX
  5
404
  8
0
 10
500221.6611104188
 20
2374067.868263299
 30
0.0
 70
    32
  0
VERTEX
  5
405
  8
0
 10
500301.5796427869
 20
2374061.762958675
 30
0.0
 70
    32
  0
VERTEX
  5
406
  8
0
 10
500378.6502686077
 20
2374059.042040456
 30
0.0
 70
    32
  0
VERTEX
  5
407
  8
0
 10
500452.6843831446
 20
2374059.71216718
 30
0.0
 70
    32
  0
VERTEX
  5
408
  8
0
 10
500523.5008125136
 20
2374063.771698938
 30
0.0
 70
    32
  0
VERTEX
  5
409
  8
0
 10
500590.9262570453
 20
2374071.210701373
 30
0.0
 70
    32
  0
VERTEX
  5
40A
  8
0
 10
500654.7957153781
 20
2374082.01097
 30
0.0
 70
    32
  0
VERTEX
  5
40B
  8
0
 10
500714.9528882449
 20
2374096.146074754
 30
0.0
 70
    32
  0
VERTEX
  5
40C
  8
0
 10
500771.2505609629
 20
2374113.581424663
 30
0.0
 70
    32
  0
VERTEX
  5
40D
  8
0
 10
500823.5509636932
 20
2374134.274352504
 30
0.0
 70
    32
  0
VERTEX
  5
40E
  8
0
 10
500871.7261085863
 20
2374158.174219216
 30
0.0
 70
    32
  0
VERTEX
  5
40F
  8
0
 10
500915.6581029899
 20
2374185.22253782
 30
0.0
 70
    32
  0
VERTEX
  5
410
  8
0
 10
500955.2394379519
 20
2374215.353116548
 30
0.0
 70
    32
  0
VERTEX
  5
411
  8
0
 10
500990.3732513128
 20
2374248.492220825
 30
0.0
 70
    32
  0
VERTEX
  5
412
  8
0
 10
501020.9735647442
 20
2374284.558753708
 30
0.0
 70
    32
  0
VERTEX
  5
413
  8
0
 10
501046.9654941509
 20
2374323.464454349
 30
0.0
 70
    32
  0
SEQEND
  5
394
  8
0
  0
LINE
  5
31C
  8
0
 10
499424.6428664111
 20
2373499.749487153
 30
0.0
 11
503574.5620743864
 21
2375077.25657269
 31
0.0
  0
ENDSEC
  0
EOF
